<svg xmlns="http://www.w3.org/2000/svg" fill="none" height="13.306122779846191" width="13.918367385864258" style=""><rect id="backgroundrect" width="100%" height="100%" x="0" y="0" fill="none" stroke="none" style="" class=""/><defs><clipPath id="clip0_2_981"><rect fill="white" height="14" width="14" id="svg_1"/></clipPath></defs><g class="currentLayer" style=""><title>Layer 1</title><g clip-path="url(#clip0_2_981)" id="svg_2" class="selected" fill="#e84141" fill-opacity="1"><path d="M10.032 0.77102C9.42682 0.784774 8.83357 0.942191 8.30119 1.23029C7.76881 1.51839 7.31253 1.92892 6.97 2.42802C6.62808 1.92916 6.17252 1.51868 5.64085 1.23042C5.10918 0.942154 4.51662 0.784353 3.912 0.77002C2.8376 0.829023 1.82763 1.30115 1.09331 2.08765C0.358999 2.87415 -0.0427847 3.91411 -0.0280027 4.99002V5.06002C-0.0330038 5.11658 -0.0330038 5.17346 -0.0280027 5.23002C0.161997 10.9 6.972 13.23 6.972 13.23C6.972 13.23 13.779 10.9 13.972 5.23002C13.976 5.17342 13.976 5.11662 13.972 5.06002V4.99002C13.9863 3.91435 13.5843 2.87478 12.85 2.08855C12.1158 1.30232 11.1061 0.83026 10.032 0.77102Z" fill="#e84141" id="svg_3" fill-opacity="1"/></g></g></svg>